<mxfile host="app.diagrams.net" modified="2022-03-23T02:02:23.305Z" agent="5.0 (Windows NT 10.0; Win64; x64) AppleWebKit/537.36 (KHTML, like Gecko) Chrome/99.0.4844.74 Safari/537.36" etag="Z_jmie9njz3unPSsf27T" version="17.1.5" type="github">
  <diagram id="C5RBs43oDa-KdzZeNtuy" name="Page-1">
    <mxGraphModel dx="1185" dy="662" grid="1" gridSize="10" guides="1" tooltips="1" connect="1" arrows="1" fold="1" page="1" pageScale="1" pageWidth="827" pageHeight="1169" math="0" shadow="0">
      <root>
        <mxCell id="WIyWlLk6GJQsqaUBKTNV-0" />
        <mxCell id="WIyWlLk6GJQsqaUBKTNV-1" parent="WIyWlLk6GJQsqaUBKTNV-0" />
        <mxCell id="tAZKZsiQVWKAyOu97wcT-3" style="edgeStyle=orthogonalEdgeStyle;rounded=0;orthogonalLoop=1;jettySize=auto;html=1;entryX=0.5;entryY=0;entryDx=0;entryDy=0;" edge="1" parent="WIyWlLk6GJQsqaUBKTNV-1" source="tAZKZsiQVWKAyOu97wcT-0" target="tAZKZsiQVWKAyOu97wcT-2">
          <mxGeometry relative="1" as="geometry" />
        </mxCell>
        <mxCell id="tAZKZsiQVWKAyOu97wcT-0" value="用户请求下单" style="rounded=1;whiteSpace=wrap;html=1;" vertex="1" parent="WIyWlLk6GJQsqaUBKTNV-1">
          <mxGeometry x="580" y="70" width="120" height="60" as="geometry" />
        </mxCell>
        <mxCell id="tAZKZsiQVWKAyOu97wcT-6" style="edgeStyle=orthogonalEdgeStyle;rounded=0;orthogonalLoop=1;jettySize=auto;html=1;exitX=1;exitY=0.5;exitDx=0;exitDy=0;entryX=0.5;entryY=1;entryDx=0;entryDy=0;" edge="1" parent="WIyWlLk6GJQsqaUBKTNV-1" source="tAZKZsiQVWKAyOu97wcT-2" target="tAZKZsiQVWKAyOu97wcT-26">
          <mxGeometry relative="1" as="geometry">
            <Array as="points">
              <mxPoint x="960" y="290" />
            </Array>
          </mxGeometry>
        </mxCell>
        <mxCell id="tAZKZsiQVWKAyOu97wcT-8" value="否" style="edgeLabel;html=1;align=center;verticalAlign=middle;resizable=0;points=[];" vertex="1" connectable="0" parent="tAZKZsiQVWKAyOu97wcT-6">
          <mxGeometry x="-0.5913" y="1" relative="1" as="geometry">
            <mxPoint as="offset" />
          </mxGeometry>
        </mxCell>
        <mxCell id="tAZKZsiQVWKAyOu97wcT-12" value="是" style="edgeStyle=orthogonalEdgeStyle;rounded=0;orthogonalLoop=1;jettySize=auto;html=1;entryX=0.5;entryY=0;entryDx=0;entryDy=0;" edge="1" parent="WIyWlLk6GJQsqaUBKTNV-1" source="tAZKZsiQVWKAyOu97wcT-2">
          <mxGeometry relative="1" as="geometry">
            <mxPoint x="640" y="400" as="targetPoint" />
          </mxGeometry>
        </mxCell>
        <mxCell id="tAZKZsiQVWKAyOu97wcT-2" value="是否有token" style="rhombus;whiteSpace=wrap;html=1;shadow=0;fontFamily=Helvetica;fontSize=12;align=center;strokeWidth=1;spacing=6;spacingTop=-4;" vertex="1" parent="WIyWlLk6GJQsqaUBKTNV-1">
          <mxGeometry x="590" y="250" width="100" height="80" as="geometry" />
        </mxCell>
        <mxCell id="tAZKZsiQVWKAyOu97wcT-7" value="" style="shape=ellipse;html=1;dashed=0;whitespace=wrap;aspect=fixed;perimeter=ellipsePerimeter;" vertex="1" parent="WIyWlLk6GJQsqaUBKTNV-1">
          <mxGeometry x="8250" y="160" width="30" height="30" as="geometry" />
        </mxCell>
        <mxCell id="tAZKZsiQVWKAyOu97wcT-28" style="edgeStyle=orthogonalEdgeStyle;rounded=0;orthogonalLoop=1;jettySize=auto;html=1;entryX=0.5;entryY=0;entryDx=0;entryDy=0;" edge="1" parent="WIyWlLk6GJQsqaUBKTNV-1" source="tAZKZsiQVWKAyOu97wcT-13" target="tAZKZsiQVWKAyOu97wcT-27">
          <mxGeometry relative="1" as="geometry" />
        </mxCell>
        <mxCell id="tAZKZsiQVWKAyOu97wcT-29" value="否" style="edgeLabel;html=1;align=center;verticalAlign=middle;resizable=0;points=[];" vertex="1" connectable="0" parent="tAZKZsiQVWKAyOu97wcT-28">
          <mxGeometry x="-0.711" y="-4" relative="1" as="geometry">
            <mxPoint as="offset" />
          </mxGeometry>
        </mxCell>
        <mxCell id="tAZKZsiQVWKAyOu97wcT-33" style="edgeStyle=orthogonalEdgeStyle;rounded=0;orthogonalLoop=1;jettySize=auto;html=1;entryX=0.5;entryY=0;entryDx=0;entryDy=0;" edge="1" parent="WIyWlLk6GJQsqaUBKTNV-1" source="tAZKZsiQVWKAyOu97wcT-13" target="tAZKZsiQVWKAyOu97wcT-32">
          <mxGeometry relative="1" as="geometry" />
        </mxCell>
        <mxCell id="tAZKZsiQVWKAyOu97wcT-13" value="商品是否有库存" style="strokeWidth=2;html=1;shape=mxgraph.flowchart.decision;whiteSpace=wrap;" vertex="1" parent="WIyWlLk6GJQsqaUBKTNV-1">
          <mxGeometry x="590" y="400" width="100" height="100" as="geometry" />
        </mxCell>
        <mxCell id="tAZKZsiQVWKAyOu97wcT-26" value="抛异常，跳转登录页面" style="whiteSpace=wrap;html=1;" vertex="1" parent="WIyWlLk6GJQsqaUBKTNV-1">
          <mxGeometry x="900" y="70" width="120" height="60" as="geometry" />
        </mxCell>
        <mxCell id="tAZKZsiQVWKAyOu97wcT-27" value="报错误信息，终止购买流程" style="whiteSpace=wrap;html=1;" vertex="1" parent="WIyWlLk6GJQsqaUBKTNV-1">
          <mxGeometry x="910" y="1140" width="120" height="60" as="geometry" />
        </mxCell>
        <mxCell id="tAZKZsiQVWKAyOu97wcT-35" style="edgeStyle=orthogonalEdgeStyle;rounded=0;orthogonalLoop=1;jettySize=auto;html=1;entryX=0.5;entryY=0;entryDx=0;entryDy=0;" edge="1" parent="WIyWlLk6GJQsqaUBKTNV-1" source="tAZKZsiQVWKAyOu97wcT-32" target="tAZKZsiQVWKAyOu97wcT-34">
          <mxGeometry relative="1" as="geometry" />
        </mxCell>
        <mxCell id="tAZKZsiQVWKAyOu97wcT-32" value="用户下单，商品库存-1，用户生成订单，生成价格，订单持续15分钟" style="whiteSpace=wrap;html=1;" vertex="1" parent="WIyWlLk6GJQsqaUBKTNV-1">
          <mxGeometry x="580" y="560" width="120" height="60" as="geometry" />
        </mxCell>
        <mxCell id="tAZKZsiQVWKAyOu97wcT-36" style="edgeStyle=orthogonalEdgeStyle;rounded=0;orthogonalLoop=1;jettySize=auto;html=1;entryX=0.5;entryY=0;entryDx=0;entryDy=0;" edge="1" parent="WIyWlLk6GJQsqaUBKTNV-1" source="tAZKZsiQVWKAyOu97wcT-34" target="tAZKZsiQVWKAyOu97wcT-27">
          <mxGeometry relative="1" as="geometry">
            <mxPoint x="970" y="960" as="targetPoint" />
          </mxGeometry>
        </mxCell>
        <mxCell id="tAZKZsiQVWKAyOu97wcT-37" value="否" style="edgeLabel;html=1;align=center;verticalAlign=middle;resizable=0;points=[];" vertex="1" connectable="0" parent="tAZKZsiQVWKAyOu97wcT-36">
          <mxGeometry x="-0.6007" y="-1" relative="1" as="geometry">
            <mxPoint y="-1" as="offset" />
          </mxGeometry>
        </mxCell>
        <mxCell id="tAZKZsiQVWKAyOu97wcT-39" style="edgeStyle=orthogonalEdgeStyle;rounded=0;orthogonalLoop=1;jettySize=auto;html=1;" edge="1" parent="WIyWlLk6GJQsqaUBKTNV-1" source="tAZKZsiQVWKAyOu97wcT-34" target="tAZKZsiQVWKAyOu97wcT-38">
          <mxGeometry relative="1" as="geometry" />
        </mxCell>
        <mxCell id="tAZKZsiQVWKAyOu97wcT-41" value="是" style="edgeLabel;html=1;align=center;verticalAlign=middle;resizable=0;points=[];" vertex="1" connectable="0" parent="tAZKZsiQVWKAyOu97wcT-39">
          <mxGeometry x="-0.3807" y="-1" relative="1" as="geometry">
            <mxPoint as="offset" />
          </mxGeometry>
        </mxCell>
        <mxCell id="tAZKZsiQVWKAyOu97wcT-34" value="是否在15分钟之内付款" style="rhombus;whiteSpace=wrap;html=1;" vertex="1" parent="WIyWlLk6GJQsqaUBKTNV-1">
          <mxGeometry x="570" y="670" width="140" height="140" as="geometry" />
        </mxCell>
        <mxCell id="tAZKZsiQVWKAyOu97wcT-46" style="edgeStyle=orthogonalEdgeStyle;rounded=0;orthogonalLoop=1;jettySize=auto;html=1;" edge="1" parent="WIyWlLk6GJQsqaUBKTNV-1" source="tAZKZsiQVWKAyOu97wcT-38" target="tAZKZsiQVWKAyOu97wcT-45">
          <mxGeometry relative="1" as="geometry" />
        </mxCell>
        <mxCell id="tAZKZsiQVWKAyOu97wcT-47" value="是" style="edgeLabel;html=1;align=center;verticalAlign=middle;resizable=0;points=[];" vertex="1" connectable="0" parent="tAZKZsiQVWKAyOu97wcT-46">
          <mxGeometry x="-0.2614" y="2" relative="1" as="geometry">
            <mxPoint as="offset" />
          </mxGeometry>
        </mxCell>
        <mxCell id="tAZKZsiQVWKAyOu97wcT-48" style="edgeStyle=orthogonalEdgeStyle;rounded=0;orthogonalLoop=1;jettySize=auto;html=1;" edge="1" parent="WIyWlLk6GJQsqaUBKTNV-1" source="tAZKZsiQVWKAyOu97wcT-38" target="tAZKZsiQVWKAyOu97wcT-27">
          <mxGeometry relative="1" as="geometry" />
        </mxCell>
        <mxCell id="tAZKZsiQVWKAyOu97wcT-50" value="否" style="edgeLabel;html=1;align=center;verticalAlign=middle;resizable=0;points=[];" vertex="1" connectable="0" parent="tAZKZsiQVWKAyOu97wcT-48">
          <mxGeometry x="-0.5814" y="1" relative="1" as="geometry">
            <mxPoint as="offset" />
          </mxGeometry>
        </mxCell>
        <mxCell id="tAZKZsiQVWKAyOu97wcT-38" value="账户内是否有余额" style="rhombus;whiteSpace=wrap;html=1;" vertex="1" parent="WIyWlLk6GJQsqaUBKTNV-1">
          <mxGeometry x="560" y="890" width="160" height="140" as="geometry" />
        </mxCell>
        <mxCell id="tAZKZsiQVWKAyOu97wcT-45" value="下单成功，库存扣一，修改订单状态为已下单" style="whiteSpace=wrap;html=1;" vertex="1" parent="WIyWlLk6GJQsqaUBKTNV-1">
          <mxGeometry x="580" y="1140" width="120" height="60" as="geometry" />
        </mxCell>
      </root>
    </mxGraphModel>
  </diagram>
</mxfile>
